{
  "asset": {
    "version": "2.0",
    "generator": "THREE.GLTFExporter"
  },
  "scenes": [
    {
      "nodes": [
        0
      ]
    }
  ],
  "scene": 0,
  "nodes": [
    {
      "children": [
        1,
        5,
        6,
        7
      ],
      "matrix": [
        0.01,
        0,
        0,
        0,
        0,
        0.01,
        0,
        0,
        0,
        0,
        0.01,
        0,
        0,
        0,
        0,
        1
      ]
    },
    {
      "matrix": [
        0.4625366276624237,
        0,
        6.914029610076904,
        0,
        0,
        1,
        0,
        0,
        -2.54053697144305,
        0,
        0.16995753120731932,
        0,
        3297.7016941678903,
        201.34373050506628,
        1789.1259094537309,
        1
      ],
      "name": "Point Light",
      "extensions": {
        "KHR_lights_punctual": {
          "light": 0
        }
      }
    },
    {
      "matrix": [
        1,
        0,
        0,
        0,
        0,
        1,
        0,
        0,
        0,
        0,
        1,
        0,
        -512.7480149323678,
        571.5155855776959,
        0,
        1
      ],
      "name": "Sphere",
      "mesh": 0
    },
    {
      "matrix": [
        2.220446049250313e-16,
        2.220446049250313e-16,
        1,
        0,
        -1,
        0,
        2.220446049250313e-16,
        0,
        0,
        -1,
        2.220446049250313e-16,
        0,
        -318.2547766357038,
        -618.5418252604371,
        4.832723266907691,
        1
      ],
      "name": "Cylinder 2",
      "mesh": 1
    },
    {
      "matrix": [
        -1,
        1.2246467991473532e-16,
        0,
        0,
        -1.2246467991473532e-16,
        -1,
        0,
        0,
        0,
        0,
        1,
        0,
        0,
        -28.628434689231312,
        -0.1476777832483549,
        1
      ],
      "name": "Torus 2",
      "mesh": 2
    },
    {
      "matrix": [
        1,
        0,
        0,
        0,
        0,
        1,
        0,
        0,
        0,
        0,
        1,
        0,
        3252.896523361675,
        -575.9865848681719,
        0,
        1
      ],
      "name": "Group",
      "children": [
        2,
        3,
        4
      ]
    },
    {
      "matrix": [
        1,
        0,
        0,
        0,
        0,
        1,
        -1.1368683772161904e-16,
        0,
        0,
        1.1368683772161904e-16,
        1,
        0,
        3163.3366627197443,
        -630.800505940614,
        1224.542601141726,
        1
      ],
      "camera": 0
    },
    {
      "matrix": [
        1,
        0,
        0,
        0,
        0,
        1,
        0,
        0,
        0,
        0,
        1,
        0,
        0,
        1,
        0,
        1
      ],
      "name": "Default Ambient Light"
    }
  ],
  "extensions": {
    "KHR_lights_punctual": {
      "lights": [
        {
          "name": "Point Light",
          "color": [
            1,
            1,
            1
          ],
          "intensity": 3.479,
          "type": "point",
          "range": 2598
        }
      ]
    }
  },
  "bufferViews": [
    {
      "buffer": 0,
      "byteOffset": 0,
      "byteLength": 50700,
      "target": 34962,
      "byteStride": 12
    },
    {
      "buffer": 0,
      "byteOffset": 50700,
      "byteLength": 50700,
      "target": 34962,
      "byteStride": 12
    },
    {
      "buffer": 0,
      "byteOffset": 101400,
      "byteLength": 33800,
      "target": 34962,
      "byteStride": 8
    },
    {
      "buffer": 0,
      "byteOffset": 135200,
      "byteLength": 48384,
      "target": 34963
    },
    {
      "buffer": 0,
      "byteOffset": 183584,
      "byteLength": 18720,
      "target": 34962,
      "byteStride": 12
    },
    {
      "buffer": 0,
      "byteOffset": 202304,
      "byteLength": 18720,
      "target": 34962,
      "byteStride": 12
    },
    {
      "buffer": 0,
      "byteOffset": 221024,
      "byteLength": 12480,
      "target": 34962,
      "byteStride": 8
    },
    {
      "buffer": 0,
      "byteOffset": 233504,
      "byteLength": 17280,
      "target": 34963
    },
    {
      "buffer": 0,
      "byteOffset": 250784,
      "byteLength": 37944,
      "target": 34962,
      "byteStride": 12
    },
    {
      "buffer": 0,
      "byteOffset": 288728,
      "byteLength": 37944,
      "target": 34962,
      "byteStride": 12
    },
    {
      "buffer": 0,
      "byteOffset": 326672,
      "byteLength": 25296,
      "target": 34962,
      "byteStride": 8
    },
    {
      "buffer": 0,
      "byteOffset": 351968,
      "byteLength": 35868,
      "target": 34963
    }
  ],
  "buffers": [
    {
      "byteLength": 387836,
      "uri": "data:application/octet-stream;base64,"
    }
  ],
  "accessors": [
    {
      "bufferView": 0,
      "componentType": 5126,
      "count": 4225,
      "max": [
        249.72787475585938,
        249.72787475585938,
        249.72787475585938
      ],
      "min": [
        -249.72787475585938,
        -249.72787475585938,
        -249.72787475585938
      ],
      "type": "VEC3"
    },
    {
      "bufferView": 1,
      "componentType": 5126,
      "count": 4225,
      "max": [
        1,
        1,
        1
      ],
      "min": [
        -1,
        -1,
        -1
      ],
      "type": "VEC3"
    },
    {
      "bufferView": 2,
      "componentType": 5126,
      "count": 4225,
      "max": [
        1.0078125,
        1
      ],
      "min": [
        -0.0078125,
        0
      ],
      "type": "VEC2"
    },
    {
      "bufferView": 3,
      "componentType": 5123,
      "count": 24192,
      "max": [
        4224
      ],
      "min": [
        0
      ],
      "type": "SCALAR"
    },
    {
      "bufferView": 4,
      "componentType": 5126,
      "count": 1560,
      "max": [
        201.5,
        352.20001220703125,
        201.5
      ],
      "min": [
        -201.5,
        -352.20001220703125,
        -201.5
      ],
      "type": "VEC3"
    },
    {
      "bufferView": 5,
      "componentType": 5126,
      "count": 1560,
      "max": [
        1,
        1,
        1
      ],
      "min": [
        -1,
        -1,
        -1
      ],
      "type": "VEC3"
    },
    {
      "bufferView": 6,
      "componentType": 5126,
      "count": 1560,
      "max": [
        1,
        1
      ],
      "min": [
        0,
        0
      ],
      "type": "VEC2"
    },
    {
      "bufferView": 7,
      "componentType": 5123,
      "count": 8640,
      "max": [
        1558
      ],
      "min": [
        0
      ],
      "type": "SCALAR"
    },
    {
      "bufferView": 8,
      "componentType": 5126,
      "count": 3162,
      "max": [
        68.51007080078125,
        792.614990234375,
        201.43370056152344
      ],
      "min": [
        -792.614990234375,
        -792.614990234375,
        -201.43370056152344
      ],
      "type": "VEC3"
    },
    {
      "bufferView": 9,
      "componentType": 5126,
      "count": 3162,
      "max": [
        1,
        1,
        0.9996684789657593
      ],
      "min": [
        -1,
        -1,
        -0.9996684789657593
      ],
      "type": "VEC3"
    },
    {
      "bufferView": 10,
      "componentType": 5126,
      "count": 3162,
      "max": [
        1,
        1
      ],
      "min": [
        0,
        0
      ],
      "type": "VEC2"
    },
    {
      "bufferView": 11,
      "componentType": 5123,
      "count": 17934,
      "max": [
        3160
      ],
      "min": [
        1
      ],
      "type": "SCALAR"
    }
  ],
  "meshes": [
    {
      "primitives": [
        {
          "mode": 4,
          "attributes": {
            "POSITION": 0,
            "NORMAL": 1,
            "TEXCOORD_0": 2
          },
          "extras": {
            "parameters": {
              "width": 499.4557373378775,
              "widthSegments": 64,
              "heightSegments": 64,
              "phiStart": 0,
              "phiLength": 6.283185307179586,
              "thetaStart": 0,
              "thetaLength": 3.141592653589793,
              "height": 499.4557373378775,
              "depth": 499.4557373378775,
              "type": "SphereGeometry"
            },
            "type": "SphereGeometry"
          },
          "indices": 3
        }
      ]
    },
    {
      "primitives": [
        {
          "mode": 4,
          "attributes": {
            "POSITION": 4,
            "NORMAL": 5,
            "TEXCOORD_0": 6
          },
          "extras": {
            "parameters": {
              "width": 403,
              "radialSegments": 64,
              "heightSegments": 1,
              "openEnded": false,
              "thetaStart": 0,
              "thetaLength": 360,
              "cornerRadius": 34,
              "cornerSegments": 8,
              "hollow": 0,
              "depth": 403,
              "height": 704.4,
              "radiusTop": 201.5,
              "radiusBottom": 201.5,
              "type": "CylinderGeometry"
            },
            "type": "CylinderGeometry"
          },
          "indices": 7
        }
      ]
    },
    {
      "primitives": [
        {
          "mode": 4,
          "attributes": {
            "POSITION": 8,
            "NORMAL": 9,
            "TEXCOORD_0": 10
          },
          "extras": {
            "parameters": {
              "width": 1585.2300391148065,
              "radialSegments": 61,
              "tubularSegments": 64,
              "arc": 3.141592653589793,
              "cornerRadius": 34,
              "cornerSegments": 8,
              "height": 1585.2300391148065,
              "depth": 403,
              "type": "TorusGeometry"
            },
            "type": "TorusGeometry"
          },
          "indices": 11
        }
      ]
    }
  ],
  "cameras": [
    {
      "type": "orthographic",
      "orthographic": {
        "xmag": 19.781565464935245,
        "ymag": 9.288063159707876,
        "zfar": 100000,
        "znear": 0
      }
    }
  ],
  "extensionsUsed": [
    "KHR_lights_punctual"
  ]
}