<svg width="1027" height="1027" viewBox="0 0 1027 1027" fill="none" xmlns="http://www.w3.org/2000/svg">
<circle cx="513.5" cy="513.5" r="513.5" fill="#3168BB"/>
<path d="M675.551 216.95V204.273H735.281V216.95H713.016V277H697.817V216.95H675.551ZM784.571 225.189C784.287 222.324 783.068 220.099 780.913 218.513C778.759 216.927 775.835 216.134 772.142 216.134C769.633 216.134 767.514 216.489 765.786 217.199C764.057 217.885 762.732 218.844 761.808 220.075C760.909 221.306 760.459 222.703 760.459 224.266C760.411 225.568 760.684 226.704 761.276 227.675C761.891 228.645 762.732 229.486 763.797 230.196C764.862 230.883 766.093 231.486 767.49 232.007C768.887 232.504 770.378 232.93 771.964 233.286L778.499 234.848C781.671 235.558 784.583 236.505 787.234 237.689C789.886 238.873 792.182 240.329 794.124 242.057C796.065 243.785 797.568 245.821 798.634 248.165C799.723 250.509 800.279 253.196 800.303 256.226C800.279 260.677 799.143 264.536 796.893 267.803C794.668 271.046 791.448 273.567 787.234 275.366C783.044 277.142 777.99 278.03 772.071 278.03C766.2 278.03 761.086 277.13 756.73 275.331C752.398 273.532 749.012 270.868 746.574 267.341C744.159 263.79 742.893 259.398 742.774 254.166H757.653C757.819 256.605 758.518 258.641 759.749 260.274C761.003 261.884 762.672 263.103 764.756 263.932C766.863 264.737 769.242 265.139 771.893 265.139C774.498 265.139 776.759 264.76 778.676 264.003C780.617 263.245 782.121 262.192 783.186 260.842C784.251 259.493 784.784 257.942 784.784 256.19C784.784 254.557 784.299 253.184 783.328 252.071C782.381 250.958 780.984 250.011 779.138 249.23C777.315 248.449 775.078 247.739 772.426 247.099L764.507 245.111C758.375 243.619 753.534 241.287 749.983 238.115C746.432 234.943 744.668 230.67 744.692 225.295C744.668 220.892 745.84 217.045 748.207 213.754C750.598 210.464 753.877 207.895 758.044 206.048C762.211 204.202 766.946 203.278 772.249 203.278C777.646 203.278 782.357 204.202 786.382 206.048C790.43 207.895 793.579 210.464 795.828 213.754C798.077 217.045 799.237 220.857 799.308 225.189H784.571Z" fill="white"/>
<circle cx="392" cy="514" r="280" fill="#DEE216"/>
<path d="M436.58 350.455H447.979V388.487C447.979 392.003 447.189 395.057 445.609 397.649C444.047 400.241 441.871 402.239 439.084 403.642C436.296 405.044 433.056 405.746 429.363 405.746C426.078 405.746 423.095 405.169 420.414 404.015C417.75 402.843 415.637 401.067 414.075 398.688C412.512 396.291 411.74 393.281 411.758 389.659H423.237C423.272 391.097 423.565 392.331 424.116 393.361C424.684 394.373 425.456 395.154 426.433 395.705C427.427 396.238 428.599 396.504 429.949 396.504C431.369 396.504 432.567 396.202 433.544 395.598C434.538 394.977 435.293 394.071 435.808 392.882C436.323 391.692 436.58 390.227 436.58 388.487V350.455ZM487.104 366.142C486.891 363.993 485.977 362.324 484.361 361.135C482.745 359.945 480.552 359.35 477.782 359.35C475.9 359.35 474.311 359.616 473.015 360.149C471.719 360.664 470.724 361.383 470.032 362.306C469.357 363.23 469.02 364.277 469.02 365.449C468.984 366.426 469.189 367.278 469.632 368.006C470.094 368.734 470.724 369.364 471.523 369.897C472.322 370.412 473.246 370.865 474.293 371.255C475.341 371.628 476.46 371.948 477.649 372.214L482.55 373.386C484.929 373.919 487.113 374.629 489.102 375.517C491.09 376.404 492.813 377.496 494.268 378.793C495.724 380.089 496.852 381.616 497.651 383.374C498.468 385.131 498.885 387.147 498.903 389.419C498.885 392.757 498.033 395.652 496.346 398.102C494.677 400.534 492.262 402.425 489.102 403.775C485.959 405.107 482.168 405.772 477.729 405.772C473.326 405.772 469.49 405.098 466.223 403.748C462.974 402.399 460.435 400.401 458.606 397.756C456.795 395.092 455.845 391.799 455.756 387.875H466.916C467.04 389.703 467.564 391.23 468.487 392.456C469.428 393.663 470.68 394.577 472.243 395.199C473.823 395.803 475.607 396.104 477.596 396.104C479.549 396.104 481.245 395.82 482.683 395.252C484.139 394.684 485.266 393.894 486.065 392.882C486.864 391.87 487.264 390.707 487.264 389.393C487.264 388.168 486.9 387.138 486.172 386.303C485.462 385.469 484.414 384.759 483.029 384.173C481.662 383.587 479.984 383.054 477.995 382.575L472.056 381.083C467.457 379.964 463.826 378.216 461.163 375.836C458.5 373.457 457.177 370.252 457.195 366.222C457.177 362.919 458.056 360.034 459.831 357.566C461.625 355.098 464.084 353.171 467.209 351.786C470.334 350.401 473.885 349.709 477.862 349.709C481.911 349.709 485.444 350.401 488.462 351.786C491.499 353.171 493.86 355.098 495.547 357.566C497.234 360.034 498.104 362.892 498.157 366.142H487.104Z" fill="white"/>
</svg>
